<?xml version="1.0" encoding="UTF-8"?>
<svg width="264px" height="237px" viewBox="0 0 264 237" version="1.1" xmlns="http://www.w3.org/2000/svg" xmlns:xlink="http://www.w3.org/1999/xlink">
    <!-- Generator: Sketch 46.2 (44496) - http://www.bohemiancoding.com/sketch -->
    <title>big logo</title>
    <desc>Created with Sketch.</desc>
    <defs></defs>
    <g id="Page-1" stroke="none" stroke-width="1" fill="none" fill-rule="evenodd">
        <g id="big-logo" fill-rule="nonzero">
            <path d="M264,114.9 C264,117.9 264,120.9 264,123.9 C261,126.3 260.5,130.1 258.7,133.1 C241.4,162.9 224.2,192.7 207.1,222.7 C203,230 197.1,234.4 189,236.1 C184.2,236 179.4,235.9 174.6,235.9 C141.4,235.9 108.2,236 74.9,236.1 C67.4,234.5 61.5,230.7 57.6,224 C42.1,197 26.6,170 11.1,143 C7.4,136.6 3.7,130.3 -2.84217094e-14,123.9 C-2.84217094e-14,120.6 -2.84217094e-14,117.2 -2.84217094e-14,113.9 C2.9,112.1 3.1,108.6 4.6,106 C21.5,76.8 38.4,47.5 55,18.1 C59.6,10 65.2,3.5 74.9,1.7 C84.2,1.8 93.5,1.9 102.8,1.9 C131.5,1.9 160.3,1.8 189,1.7 C196.2,3.3 202.2,6.8 206,13.4 C217,32.4 228.1,51.4 239,70.5 C247.5,85.2 255.7,100.1 264,114.9 Z M131.9,24.9 L131.9,24.9 C115.1,24.9 98.2,25 81.4,24.9 C78.7,24.9 77.4,25.8 75.9,28 C69.3,37.6 63.8,47.9 58.1,58 C47.2,77.2 35.4,96 25.4,115.8 C24.4,117.8 24.3,119.5 25.2,121.8 C30.3,134.6 38.2,145.8 44.8,157.7 C53.3,173 62.2,188 70.9,203.2 C74.4,209.2 78.3,214.2 86.4,214.1 C116.9,213.9 147.4,214.1 177.9,213.9 C180.9,213.9 184.8,214.3 187.1,211.5 C189.5,208.7 191.6,205.7 193.5,202.6 C201.4,189.1 209.4,175.6 217,161.9 C224.3,148.8 232.8,136.5 238.7,122.6 C239.9,119.9 239.9,117.7 238.5,115.2 C222.5,86 206,57.3 188.8,29 C187,26 185,24.7 181.4,24.7 C164.9,25 148.4,24.9 131.9,24.9 Z" id="Shape" fill="#566F97"></path>
            <path d="M189,0.9 C189,1.2 189.1,1.4 189.1,1.7 C160.4,1.8 131.6,1.8 102.9,1.9 C93.6,1.9 84.3,1.8 75,1.7 C75,1.4 75,1.2 75.1,0.9 C113,0.9 151,0.9 189,0.9 Z" id="Shape" fill="#D5D4FA"></path>
            <path d="M189.1,236.1 C189.1,236.4 189.1,236.6 189,236.9 C151,236.9 113,236.9 75,236.9 C75,236.6 74.9,236.4 74.9,236.1 C108.1,236 141.3,236 174.6,235.9 C179.4,235.9 184.2,236 189.1,236.1 Z" id="Shape" fill="#D5D4FA"></path>
            <path d="M144.8,157.1 C138.2,168.4 131.7,179.6 125.3,190.9 C123.9,193.4 122.3,194.4 119.4,194.3 C110.4,194.1 101.4,194.2 92.4,194.3 C90,194.3 88.4,193.8 87.1,191.5 C81.1,180.9 75,170.4 69,159.9 C67.9,158 66.7,156.2 70.5,156.2 C95,156.3 119.4,156.3 143.9,156.4 C144.1,156.5 144.2,156.6 144.8,157.1 Z" id="Shape" fill="#566F97"></path>
            <path d="M132.2,193.3 C144.9,171.2 157.7,149.1 170.9,126.3 C175,133.2 178.7,139.6 182.4,146 C185.2,150.9 187.9,155.9 190.9,160.7 C192.3,163 192.2,164.8 190.9,167.1 C186.1,175.1 181.5,183.2 176.9,191.3 C176,192.9 175.1,194.3 172.8,194.3 C159.6,194.2 146.5,194.2 133.3,194.1 C133.1,194.1 132.9,193.8 132.2,193.3 Z" id="Shape" fill="#566F97"></path>
            <path d="M157.8,88.9 C171.9,88.9 185,88.9 198.1,88.9 C200.3,88.9 201.4,90 202.3,91.7 C207.2,100.2 212,108.7 217,117.2 C217.8,118.6 218.1,119.7 217.2,121.3 C210.5,132.8 203.9,144.3 196.8,156.6 C183.7,133.9 171,111.8 157.8,88.9 Z" id="Shape" fill="#566F97"></path>
            <path d="M67.5,81.7 C80.5,104.1 93.1,126.1 106.4,149 C101.6,149 97.6,149 93.6,149 C84.6,149 75.6,148.9 66.6,149 C64,149 62.4,148.4 61,146 C56.6,138 51.9,130.1 47.4,122.2 C46.6,120.8 45.7,119.5 46.8,117.7 C53.6,105.8 60.4,94 67.5,81.7 Z" id="Shape" fill="#566F97"></path>
            <path d="M119,81.6 C125.8,69.9 132.2,58.9 138.5,47.7 C139.9,45.2 141.7,44.4 144.5,44.4 C153.5,44.5 162.5,44.5 171.4,44.5 C173.4,44.5 175.2,44.4 176.5,46.7 C182.8,57.8 189.2,68.9 195.6,80 C195.8,80.4 195.8,80.9 195.9,81.6 C170.3,81.6 145,81.6 119,81.6 Z" id="Shape" fill="#566F97"></path>
            <path d="M93.2,111.7 C86,99.3 79.3,87.7 72.6,76.1 C71.8,74.7 72.1,73.6 72.8,72.4 C77.7,63.9 82.7,55.4 87.5,46.9 C88.6,45 90,44.6 92,44.6 C104,44.7 116,44.7 128,44.6 C130.5,44.6 132,44.9 130.3,47.9 C118,68.7 105.9,89.7 93.2,111.7 Z" id="Shape" fill="#566F97"></path>
        </g>
    </g>
</svg>